{
	"asset":{
		"generator":"Khronos glTF Blender I/O v5.0.21",
		"version":"2.0"
	},
	"scene":0,
	"scenes":[
		{
			"name":"Scene",
			"nodes":[
				34
			]
		}
	],
	"nodes":[
		{
			"name":"L_Ear",
			"rotation":[
				-0.43562567234039307,
				-1.0765700331205608e-08,
				-1.4386925428766517e-08,
				0.9001278877258301
			],
			"scale":[
				1,
				0.9999998807907104,
				0.9999998807907104
			],
			"translation":[
				0.3307124078273773,
				3.4787864685058594,
				-8.369386672973633
			]
		},
		{
			"name":"R_Ear",
			"rotation":[
				3.196549585027242e-07,
				0.43562576174736023,
				-0.9001278877258301,
				8.481951851990743e-08
			],
			"scale":[
				1,
				0.9999998807907104,
				0.9999998807907104
			],
			"translation":[
				0.33067163825035095,
				3.4787776470184326,
				8.369393348693848
			]
		},
		{
			"name":"Jaw",
			"rotation":[
				1.5242353820082988e-13,
				-6.198658936400897e-14,
				-1.8815855185039254e-07,
				1
			],
			"scale":[
				1,
				0.9999999403953552,
				0.9999999403953552
			],
			"translation":[
				4.342294692993164,
				1.7153550386428833,
				3.132722667942289e-07
			]
		},
		{
			"children":[
				0,
				1,
				2
			],
			"name":"Head",
			"rotation":[
				-6.013704023644095e-08,
				1.686064763362083e-07,
				-0.3480163812637329,
				0.9374884366989136
			],
			"translation":[
				8.427555084228516,
				-3.827481486951001e-05,
				-2.3167303879745305e-06
			]
		},
		{
			"children":[
				3
			],
			"name":"Neck_03",
			"rotation":[
				-2.34802899345965e-10,
				-1.3938887377662468e-07,
				-0.09075846523046494,
				0.9958729147911072
			],
			"translation":[
				8.20048713684082,
				3.6691806144517614e-06,
				6.84428869135445e-08
			]
		},
		{
			"children":[
				4
			],
			"name":"Neck_02",
			"rotation":[
				-9.33119679302763e-08,
				1.24560514791483e-07,
				0.02035396546125412,
				0.9997928738594055
			],
			"scale":[
				0.9999999403953552,
				1,
				1
			],
			"translation":[
				9.411645889282227,
				-0.2541505992412567,
				-2.3031443561194465e-06
			]
		},
		{
			"children":[
				5
			],
			"name":"Neck_01",
			"rotation":[
				2.554446609792649e-07,
				1.7428946064157458e-09,
				0.26315510272979736,
				0.9647535681724548
			],
			"scale":[
				1.0000001192092896,
				1,
				1
			],
			"translation":[
				10.464384078979492,
				3.231289863586426,
				-0.06415563076734543
			]
		},
		{
			"children":[
				6
			],
			"name":"NeckBase",
			"rotation":[
				-2.533084852984757e-10,
				2.3951338690153534e-09,
				-9.685754776000977e-08,
				1
			],
			"translation":[
				10.462867736816406,
				-0.6460113525390625,
				-3.103585640928941e-06
			]
		},
		{
			"name":"L_Front_Hoof",
			"rotation":[
				2.9481098451356047e-08,
				-2.755657249053911e-07,
				0.012045356445014477,
				0.9999274611473083
			],
			"translation":[
				14.283817291259766,
				0.44320452213287354,
				1.0425206710351631e-05
			]
		},
		{
			"children":[
				8
			],
			"name":"L_Front_LowerLeg",
			"rotation":[
				2.449409976179595e-06,
				5.842133532496518e-07,
				0.0061279600486159325,
				0.9999812245368958
			],
			"scale":[
				0.9999999403953552,
				0.9999999403953552,
				0.9999998807907104
			],
			"translation":[
				19.249067306518555,
				1.8194259610027075e-07,
				-8.801956028037239e-06
			]
		},
		{
			"children":[
				9
			],
			"name":"L_Front_UpperLeg",
			"rotation":[
				-2.382422053415212e-06,
				-8.665583095535112e-07,
				0.20003916323184967,
				0.9797878861427307
			],
			"translation":[
				18.944414138793945,
				0.004027508199214935,
				0.00032356183510273695
			]
		},
		{
			"children":[
				10
			],
			"name":"L_Shoulder",
			"rotation":[
				2.6157645494073734e-10,
				1.9190636635357805e-07,
				-0.9186546802520752,
				0.3950614929199219
			],
			"scale":[
				1,
				1.0000001192092896,
				1
			],
			"translation":[
				3.834282159805298,
				-13.629378318786621,
				-8.199871063232422
			]
		},
		{
			"name":"R_Front_Hoof",
			"rotation":[
				-3.203113152494552e-08,
				6.186239431826834e-08,
				0.012045486830174923,
				0.9999274611473083
			],
			"translation":[
				-14.283854484558105,
				-0.4432660937309265,
				-2.717364168347558e-06
			]
		},
		{
			"children":[
				12
			],
			"name":"R_Front_LowerLeg",
			"rotation":[
				-5.459068574964476e-08,
				6.209976977089582e-10,
				0.006128143984824419,
				0.9999812245368958
			],
			"scale":[
				0.9999999403953552,
				1,
				1
			],
			"translation":[
				-19.24907684326172,
				-1.7690314052742906e-05,
				3.8256216612353455e-06
			]
		},
		{
			"children":[
				13
			],
			"name":"R_Front_UpperLeg",
			"rotation":[
				3.631468459275311e-08,
				-1.2051631870235724e-07,
				0.20003874599933624,
				0.9797880053520203
			],
			"scale":[
				1,
				0.9999998807907104,
				1
			],
			"translation":[
				-18.959659576416016,
				-0.015002336353063583,
				-0.0019388453802093863
			]
		},
		{
			"children":[
				14
			],
			"name":"R_Shoulder",
			"rotation":[
				1.2612909472409228e-07,
				8.86733886318325e-08,
				0.39506158232688904,
				0.9186546802520752
			],
			"scale":[
				1.0000001192092896,
				1,
				1
			],
			"translation":[
				3.834279775619507,
				-13.62943172454834,
				8.199859619140625
			]
		},
		{
			"children":[
				7,
				11,
				15
			],
			"name":"Spine_04",
			"rotation":[
				-1.671666183256093e-07,
				-5.082342013906782e-08,
				0.119339719414711,
				0.9928535223007202
			],
			"translation":[
				22.175992965698242,
				1.3607369661331177,
				-3.1756580938235857e-06
			]
		},
		{
			"children":[
				16
			],
			"name":"Spine_03",
			"rotation":[
				7.392655021476457e-08,
				3.941829973541644e-08,
				0.07655298709869385,
				0.997065544128418
			],
			"scale":[
				0.9999999403953552,
				1,
				1
			],
			"translation":[
				22.916732788085938,
				0.16947713494300842,
				-4.956580596626736e-06
			]
		},
		{
			"children":[
				17
			],
			"name":"Spine_02",
			"rotation":[
				-2.275720056843511e-09,
				-5.334633290665636e-10,
				0.026966851204633713,
				0.9996363520622253
			],
			"scale":[
				1.0000001192092896,
				1.0000001192092896,
				0.9999999403953552
			],
			"translation":[
				19.382944107055664,
				-1.3948822021484375,
				-4.1012917790794745e-06
			]
		},
		{
			"name":"L_Hoof",
			"rotation":[
				-8.060891900640854e-07,
				4.449843515885732e-07,
				-0.021112872287631035,
				0.9997771382331848
			],
			"scale":[
				0.9999999403953552,
				0.9999998807907104,
				0.9999999403953552
			],
			"translation":[
				22.111848831176758,
				2.2613054170506075e-05,
				-1.9823670299956575e-05
			]
		},
		{
			"children":[
				19
			],
			"name":"L_LowerLeg",
			"rotation":[
				1.0413564268674236e-06,
				-1.756429242050217e-07,
				0.3295553922653198,
				0.9441362023353577
			],
			"scale":[
				0.9999998807907104,
				0.9999998807907104,
				0.9999999403953552
			],
			"translation":[
				21.47554588317871,
				-3.50437593460083,
				-4.289378466637572e-06
			]
		},
		{
			"children":[
				20
			],
			"name":"L_UpperLeg",
			"rotation":[
				-1.8320370998026192e-08,
				4.695210620297985e-08,
				-0.20454488694667816,
				0.978857159614563
			],
			"scale":[
				1,
				1.0000001192092896,
				1
			],
			"translation":[
				19.879798889160156,
				5.95843505859375,
				3.0300925573101267e-06
			]
		},
		{
			"children":[
				21
			],
			"name":"L_Hip",
			"rotation":[
				-2.0737049055696843e-07,
				1.5288412669178797e-07,
				-0.7383270859718323,
				0.6744428277015686
			],
			"scale":[
				1,
				1,
				0.9999999403953552
			],
			"translation":[
				-3.1190195083618164,
				-6.9535298347473145,
				-9.211542129516602
			]
		},
		{
			"name":"R_Hoof",
			"rotation":[
				1.2567276996833243e-07,
				1.1458589455060064e-07,
				-0.021112345159053802,
				0.9997771382331848
			],
			"scale":[
				1,
				1,
				0.9999999403953552
			],
			"translation":[
				-22.111875534057617,
				-3.63609469786752e-05,
				-1.3191129255574197e-07
			]
		},
		{
			"children":[
				23
			],
			"name":"R_LowerLeg",
			"rotation":[
				-1.7444173883163216e-09,
				-2.3528970771735658e-08,
				0.3295551836490631,
				0.9441363215446472
			],
			"scale":[
				1,
				1.0000001192092896,
				0.9999999403953552
			],
			"translation":[
				-21.475534439086914,
				3.504307508468628,
				3.0759865694562905e-06
			]
		},
		{
			"children":[
				24
			],
			"name":"R_UpperLeg",
			"rotation":[
				3.377160595618989e-08,
				-8.447719324067293e-08,
				-0.204544797539711,
				0.9788572192192078
			],
			"scale":[
				0.9999999403953552,
				1.0000001192092896,
				1
			],
			"translation":[
				-19.879858016967773,
				-5.958377838134766,
				-4.910302777716424e-06
			]
		},
		{
			"children":[
				25
			],
			"name":"R_Hip",
			"rotation":[
				-1.415850103825278e-08,
				-5.263410329803264e-08,
				0.6744424700737,
				0.7383273839950562
			],
			"scale":[
				1,
				1,
				0.9999999403953552
			],
			"translation":[
				-3.118978500366211,
				-6.953469276428223,
				9.211541175842285
			]
		},
		{
			"name":"Tail_02",
			"rotation":[
				-1.1509475594806418e-09,
				4.6109196460975e-08,
				-0.0030488271731883287,
				0.9999953508377075
			],
			"scale":[
				1.0000001192092896,
				0.9999999403953552,
				1
			],
			"translation":[
				11.029251098632812,
				1.8411736164125614e-05,
				2.6768771022034343e-07
			]
		},
		{
			"children":[
				27
			],
			"name":"Tail_01",
			"rotation":[
				0.06044561788439751,
				-0.9981715083122253,
				1.1643188635446222e-09,
				7.535985702133985e-08
			],
			"scale":[
				1,
				1.000000238418579,
				0.9999999403953552
			],
			"translation":[
				-17.331153869628906,
				-1.1134138107299805,
				3.914324224751908e-06
			]
		},
		{
			"children":[
				18,
				22,
				26,
				28
			],
			"name":"Spine_01",
			"rotation":[
				0.04489312320947647,
				-0.7056801915168762,
				-0.04489312320947647,
				0.7056803703308105
			],
			"scale":[
				0.9999998211860657,
				0.9999996423721313,
				0.9999998807907104
			],
			"translation":[
				0.30835455656051636,
				72.75562286376953,
				-48.38804244995117
			]
		},
		{
			"children":[
				29
			],
			"name":"SK_Goat",
			"rotation":[
				0.7071065902709961,
				0,
				0,
				0.7071069478988647
			],
			"translation":[
				2.9694224509824174e-12,
				2.775341272354126e-07,
				-3.7163445654186944e-08
			]
		},
		{
			"children":[
				30
			],
			"name":"RootNode_0"
		},
		{
			"children":[
				31
			],
			"name":"RL_BoneRoot",
			"rotation":[
				-0.7071067690849304,
				0,
				0,
				0.7071067690849304
			]
		},
		{
			"mesh":0,
			"name":"SK_Goat_2",
			"skin":0
		},
		{
			"children":[
				33,
				32
			],
			"name":"Armature",
			"scale":[
				0.009999999776482582,
				0.009999999776482582,
				0.009999999776482582
			]
		}
	],
	"materials":[
		{
			"alphaMode":"BLEND",
			"doubleSided":true,
			"name":"M_Goat",
			"normalTexture":{
				"index":0
			},
			"pbrMetallicRoughness":{
				"baseColorTexture":{
					"index":1
				},
				"metallicFactor":0,
				"roughnessFactor":0.2928932309150696
			}
		}
	],
	"meshes":[
		{
			"name":"SK_Goat_2",
			"primitives":[
				{
					"attributes":{
						"POSITION":0,
						"NORMAL":1,
						"TEXCOORD_0":2,
						"JOINTS_0":3,
						"WEIGHTS_0":4
					},
					"indices":5,
					"material":0
				}
			]
		}
	],
	"textures":[
		{
			"sampler":0,
			"source":0
		},
		{
			"sampler":0,
			"source":1
		}
	],
	"images":[
		{
			"mimeType":"image/png",
			"name":"M_Goat_Normal",
			"uri":"M_Goat_Normal.png"
		},
		{
			"mimeType":"image/png",
			"name":"M_Goat_Diffuse",
			"uri":"M_Goat_Diffuse.png"
		}
	],
	"skins":[
		{
			"inverseBindMatrices":6,
			"joints":[
				32,
				31,
				30,
				29,
				18,
				17,
				16,
				7,
				6,
				5,
				4,
				3,
				0,
				1,
				2,
				11,
				10,
				9,
				8,
				15,
				14,
				13,
				12,
				22,
				21,
				20,
				19,
				26,
				25,
				24,
				23,
				28,
				27
			],
			"name":"Armature"
		}
	],
	"accessors":[
		{
			"bufferView":0,
			"componentType":5126,
			"count":1460,
			"max":[
				0.1859002262353897,
				1.2056255340576172,
				0.7773980498313904
			],
			"min":[
				-0.17844894528388977,
				-0.001757221296429634,
				-0.89991694688797
			],
			"type":"VEC3"
		},
		{
			"bufferView":1,
			"componentType":5126,
			"count":1460,
			"type":"VEC3"
		},
		{
			"bufferView":2,
			"componentType":5126,
			"count":1460,
			"type":"VEC2"
		},
		{
			"bufferView":3,
			"componentType":5121,
			"count":1460,
			"type":"VEC4"
		},
		{
			"bufferView":4,
			"componentType":5126,
			"count":1460,
			"type":"VEC4"
		},
		{
			"bufferView":5,
			"componentType":5123,
			"count":7008,
			"type":"SCALAR"
		},
		{
			"bufferView":6,
			"componentType":5126,
			"count":33,
			"type":"MAT4"
		}
	],
	"bufferViews":[
		{
			"buffer":0,
			"byteLength":17520,
			"byteOffset":0,
			"target":34962
		},
		{
			"buffer":0,
			"byteLength":17520,
			"byteOffset":17520,
			"target":34962
		},
		{
			"buffer":0,
			"byteLength":11680,
			"byteOffset":35040,
			"target":34962
		},
		{
			"buffer":0,
			"byteLength":5840,
			"byteOffset":46720,
			"target":34962
		},
		{
			"buffer":0,
			"byteLength":23360,
			"byteOffset":52560,
			"target":34962
		},
		{
			"buffer":0,
			"byteLength":14016,
			"byteOffset":75920,
			"target":34963
		},
		{
			"buffer":0,
			"byteLength":2112,
			"byteOffset":89936
		}
	],
	"samplers":[
		{
			"magFilter":9729,
			"minFilter":9987
		}
	],
	"buffers":[
		{
			"byteLength":92048,
			"uri":"Goat.bin"
		}
	]
}
