{
	"asset":{
		"generator":"Khronos glTF Blender I/O v5.0.21",
		"version":"2.0"
	},
	"extensionsUsed":[
		"KHR_materials_specular"
	],
	"scene":0,
	"scenes":[
		{
			"name":"Scene",
			"nodes":[
				47
			]
		}
	],
	"nodes":[
		{
			"name":"BN_Tail_04",
			"rotation":[
				6.080426828702912e-08,
				7.448809924426314e-08,
				0.008588862605392933,
				0.999963104724884
			],
			"translation":[
				7.669975757598877,
				1.9073838757321937e-06,
				-2.4304608814418316e-07
			]
		},
		{
			"children":[
				0
			],
			"name":"BN_Tail_03",
			"rotation":[
				1.8699333281801955e-07,
				1.6585174478223053e-07,
				0.0029105597641319036,
				0.999995768070221
			],
			"scale":[
				0.9999998807907104,
				0.9999999403953552,
				0.9999999403953552
			],
			"translation":[
				8.760815620422363,
				9.536760444461834e-06,
				8.872193575371057e-07
			]
		},
		{
			"children":[
				1
			],
			"name":"BN_Tail_02",
			"rotation":[
				-2.812282673403388e-07,
				-3.6625505117626744e-07,
				-0.06969272345304489,
				0.9975684881210327
			],
			"translation":[
				6.823807716369629,
				-4.291522600397002e-06,
				3.9027404454827774e-06
			]
		},
		{
			"children":[
				2
			],
			"name":"BN_Tail_01",
			"rotation":[
				-0.236223503947258,
				-0.9716987609863281,
				8.180384725164913e-07,
				4.208679058592679e-07
			],
			"scale":[
				1,
				0.9999999403953552,
				0.9999999403953552
			],
			"translation":[
				-1.2408733367919922,
				-0.7182960510253906,
				2.758821892712149e-06
			]
		},
		{
			"name":"Bip01_R_Toe0Nub",
			"rotation":[
				-1.798616722226143e-08,
				-7.757080311421305e-09,
				-5.273614078760147e-08,
				1
			],
			"scale":[
				1.0000001192092896,
				0.9999999403953552,
				1
			],
			"translation":[
				0.2822601795196533,
				-2.942979335784912e-07,
				-1.9301369320601225e-06
			]
		},
		{
			"children":[
				4
			],
			"name":"Bip01_R_Toe0",
			"rotation":[
				-1.0503356406843523e-06,
				7.571958121843636e-06,
				0.7071072459220886,
				0.7071062922477722
			],
			"scale":[
				1.0000001192092896,
				1,
				0.9999999403953552
			],
			"translation":[
				1.324448823928833,
				2.687182664871216,
				-2.2740860003978014e-06
			]
		},
		{
			"children":[
				5
			],
			"name":"Bip01_R_Foot",
			"rotation":[
				0.10515428334474564,
				0.019542180001735687,
				-0.06235974282026291,
				0.9923063516616821
			],
			"scale":[
				1,
				1,
				0.9999999403953552
			],
			"translation":[
				4.2781982421875,
				3.5762786865234375e-06,
				2.868473529815674e-07
			]
		},
		{
			"children":[
				6
			],
			"name":"Bip01_R_HorseLink",
			"rotation":[
				-1.5174907730397535e-07,
				3.4648505220502557e-07,
				0.43772733211517334,
				0.8991077542304993
			],
			"scale":[
				1.0000001192092896,
				0.9999998807907104,
				0.9999999403953552
			],
			"translation":[
				9.358078002929688,
				2.1457672119140625e-06,
				-3.3527612686157227e-06
			]
		},
		{
			"children":[
				7
			],
			"name":"Bip01_R_Calf",
			"rotation":[
				2.0962309221772557e-08,
				-1.5463103864021832e-07,
				-0.5182197690010071,
				0.8552474975585938
			],
			"scale":[
				1,
				0.9999999403953552,
				0.9999998807907104
			],
			"translation":[
				8.396010398864746,
				-1.0728836059570312e-06,
				1.2516975402832031e-06
			]
		},
		{
			"children":[
				8
			],
			"name":"Bip01_R_Thigh",
			"rotation":[
				-0.7695754170417786,
				-0.6309377551078796,
				0.09212613850831985,
				0.0344102717936039
			],
			"scale":[
				1,
				0.9999999403953552,
				1
			],
			"translation":[
				-1.3343321084976196,
				-0.13756240904331207,
				-2.443974018096924
			]
		},
		{
			"name":"Bip01_L_Toe0Nub",
			"rotation":[
				-1.4147955198495765e-06,
				-1.7462301049597784e-10,
				1,
				2.3283067140944524e-10
			],
			"scale":[
				0.9999999403953552,
				0.9999999403953552,
				0.9999999403953552
			],
			"translation":[
				0.28226664662361145,
				-4.6193599700927734e-07,
				3.5299162846058607e-06
			]
		},
		{
			"children":[
				10
			],
			"name":"Bip01_L_Toe0",
			"rotation":[
				-3.622664053182234e-06,
				1.437921127944719e-06,
				0.7071070075035095,
				0.7071065306663513
			],
			"scale":[
				0.9999999403953552,
				1,
				1
			],
			"translation":[
				1.324446678161621,
				2.6871840953826904,
				-2.1894375095143914e-05
			]
		},
		{
			"children":[
				11
			],
			"name":"Bip01_L_Foot",
			"rotation":[
				-0.1051490381360054,
				-0.019542425870895386,
				-0.062359221279621124,
				0.9923070073127747
			],
			"scale":[
				1,
				0.9999997615814209,
				0.9999997615814209
			],
			"translation":[
				4.278195381164551,
				-1.5497207641601562e-06,
				3.1925737857818604e-06
			]
		},
		{
			"children":[
				12
			],
			"name":"Bip01_L_HorseLink",
			"rotation":[
				1.2209837052523653e-07,
				-3.987942420735635e-08,
				0.4377264380455017,
				0.8991082310676575
			],
			"translation":[
				9.358081817626953,
				2.384185791015625e-07,
				1.0132789611816406e-06
			]
		},
		{
			"children":[
				13
			],
			"name":"Bip01_L_Calf",
			"rotation":[
				-1.0399480032674546e-07,
				1.698763298918493e-07,
				-0.5182196497917175,
				0.8552475571632385
			],
			"translation":[
				8.396008491516113,
				-6.377696990966797e-06,
				-1.1920928955078125e-07
			]
		},
		{
			"children":[
				14
			],
			"name":"Bip01_L_Thigh",
			"rotation":[
				0.7695756554603577,
				0.6309373378753662,
				0.09212785959243774,
				0.03440776839852333
			],
			"scale":[
				1,
				0.9999997019767761,
				1
			],
			"translation":[
				-1.3343337774276733,
				-0.1375783532857895,
				2.443972110748291
			]
		},
		{
			"name":"Bip01_R_Finger0Nub",
			"rotation":[
				-8.986899047158659e-08,
				2.9103820048392848e-11,
				1,
				2.4738253112666087e-10
			],
			"scale":[
				1.0000001192092896,
				1.0000001192092896,
				0.9999998807907104
			],
			"translation":[
				3.5715339183807373,
				-1.1142343282699585e-05,
				1.3763085007667542e-05
			]
		},
		{
			"children":[
				16
			],
			"name":"Bip01_R_Finger0",
			"rotation":[
				-0.01706654019653797,
				0.08842529356479645,
				-0.6440277099609375,
				0.759682834148407
			],
			"scale":[
				0.9999999403953552,
				0.9999998807907104,
				1.0000001192092896
			],
			"translation":[
				2.229400396347046,
				0.6743870377540588,
				0.13562127947807312
			]
		},
		{
			"children":[
				17
			],
			"name":"Bip01_R_Hand",
			"rotation":[
				0.19746355712413788,
				-0.010062064975500107,
				-0.06785508990287781,
				0.9779072999954224
			],
			"scale":[
				1.0000001192092896,
				1.0000001192092896,
				1
			],
			"translation":[
				7.805430889129639,
				5.8747828006744385e-06,
				-4.470348358154297e-08
			]
		},
		{
			"children":[
				18
			],
			"name":"Bip01_R_Forearm",
			"rotation":[
				7.500960208517427e-08,
				-1.7322761891591654e-07,
				-0.3397511839866638,
				0.940515398979187
			],
			"translation":[
				7.460987091064453,
				-2.1457672119140625e-06,
				1.5348196029663086e-06
			]
		},
		{
			"children":[
				19
			],
			"name":"Bip01_R_UpperArm",
			"rotation":[
				0.5231443643569946,
				-0.6140937209129333,
				0.32086819410324097,
				0.4962384104728699
			],
			"scale":[
				1,
				1,
				0.9999999403953552
			],
			"translation":[
				6.624789714813232,
				-3.5762786865234375e-06,
				6.735324859619141e-06
			]
		},
		{
			"children":[
				20
			],
			"name":"Bip01_R_Clavicle",
			"rotation":[
				-0.5973781943321228,
				-0.5243627429008484,
				0.49188587069511414,
				0.3552904725074768
			],
			"scale":[
				1,
				0.9999999403953552,
				1.0000001192092896
			],
			"translation":[
				-1.0257917642593384,
				-4.464015960693359,
				-2.1981465816497803
			]
		},
		{
			"name":"Bip01_L_Finger0Nub",
			"rotation":[
				5.171751382704315e-08,
				-1.7018831499626685e-07,
				2.669840455382655e-07,
				1
			],
			"scale":[
				0.9999998807907104,
				0.9999998211860657,
				0.9999998807907104
			],
			"translation":[
				3.5715389251708984,
				-1.0447576642036438e-05,
				3.7597492337226868e-06
			]
		},
		{
			"children":[
				22
			],
			"name":"Bip01_L_Finger0",
			"rotation":[
				0.01706685870885849,
				-0.08842512965202332,
				-0.6440276503562927,
				0.7596829533576965
			],
			"scale":[
				0.9999999403953552,
				1,
				1.0000001192092896
			],
			"translation":[
				2.2293992042541504,
				0.6743864417076111,
				-0.13561832904815674
			]
		},
		{
			"children":[
				23
			],
			"name":"Bip01_L_Hand",
			"rotation":[
				-0.19746369123458862,
				0.010062139481306076,
				-0.0678555816411972,
				0.9779072403907776
			],
			"scale":[
				0.9999998211860657,
				1,
				1
			],
			"translation":[
				7.805427551269531,
				2.4437904357910156e-06,
				1.862645149230957e-06
			]
		},
		{
			"children":[
				24
			],
			"name":"Bip01_L_Forearm",
			"rotation":[
				3.313543004423991e-07,
				8.571634069198808e-09,
				-0.33975109457969666,
				0.940515398979187
			],
			"scale":[
				1.0000001192092896,
				1,
				1
			],
			"translation":[
				7.460987091064453,
				-9.611248970031738e-06,
				-3.039836883544922e-06
			]
		},
		{
			"children":[
				25
			],
			"name":"Bip01_L_UpperArm",
			"rotation":[
				-0.5231446027755737,
				0.6140933036804199,
				0.3208683729171753,
				0.49623847007751465
			],
			"scale":[
				1,
				1,
				1.0000001192092896
			],
			"translation":[
				6.62478494644165,
				2.9802322387695312e-08,
				-8.344650268554688e-07
			]
		},
		{
			"children":[
				26
			],
			"name":"Bip01_L_Clavicle",
			"rotation":[
				0.5973789691925049,
				0.5243616104125977,
				0.49188730120658875,
				0.35528889298439026
			],
			"scale":[
				1.0000001192092896,
				0.9999998807907104,
				1
			],
			"translation":[
				-1.025795340538025,
				-4.464033126831055,
				2.198127031326294
			]
		},
		{
			"name":"BN_Beard_L",
			"rotation":[
				0.4030855894088745,
				-0.687181830406189,
				0.4552726149559021,
				0.3975299000740051
			],
			"scale":[
				0.9999998211860657,
				1.0000001192092896,
				0.9999998807907104
			],
			"translation":[
				6.363802909851074,
				2.6665074825286865,
				1.0179983377456665
			]
		},
		{
			"name":"BN_Beard_R",
			"rotation":[
				0.3975299000740051,
				0.45527544617652893,
				-0.6871813535690308,
				0.4030832052230835
			],
			"scale":[
				1,
				1.0000001192092896,
				1
			],
			"translation":[
				6.363793849945068,
				2.6665139198303223,
				-1.0180623531341553
			]
		},
		{
			"name":"BN_Thouge_02",
			"rotation":[
				9.83673800192264e-08,
				9.963212477259731e-08,
				0.10181188583374023,
				0.9948036670684814
			],
			"scale":[
				0.9999999403953552,
				1.0000001192092896,
				0.9999999403953552
			],
			"translation":[
				1.502532958984375,
				-5.721960405935533e-06,
				-4.444573278306052e-07
			]
		},
		{
			"children":[
				30
			],
			"name":"BN_Thouge_01",
			"rotation":[
				-3.618181665387965e-07,
				-2.031207628760967e-07,
				0.13065476715564728,
				0.9914279580116272
			],
			"scale":[
				1,
				1.0000001192092896,
				1.0000001192092896
			],
			"translation":[
				4.302205562591553,
				0.008488655090332031,
				-2.2161179913382512e-07
			]
		},
		{
			"children":[
				31
			],
			"name":"BN_Mouth",
			"rotation":[
				-0.9347612261772156,
				-0.35527658462524414,
				3.3158721635118127e-07,
				1.6785610341685242e-06
			],
			"scale":[
				1.0000001192092896,
				1.0000001192092896,
				0.9999999403953552
			],
			"translation":[
				0.1652083843946457,
				0.8818429112434387,
				-2.542777656344697e-05
			]
		},
		{
			"name":"BN_Ear_L",
			"rotation":[
				-0.5494615435600281,
				0.1984095275402069,
				-0.6226052641868591,
				0.520661473274231
			],
			"scale":[
				0.9999999403953552,
				0.9999999403953552,
				1.0000001192092896
			],
			"translation":[
				1.279542088508606,
				-1.3716392517089844,
				2.1091818809509277
			]
		},
		{
			"name":"BN_Ear_R",
			"rotation":[
				-0.5206605792045593,
				0.6226063966751099,
				-0.19840693473815918,
				0.5494621396064758
			],
			"scale":[
				0.9999998211860657,
				0.9999998211860657,
				0.9999998807907104
			],
			"translation":[
				1.2795391082763672,
				-1.3716349601745605,
				-2.1092967987060547
			]
		},
		{
			"name":"Bip01_HeadNub",
			"rotation":[
				5.667792217544168e-14,
				-2.5573115181032335e-07,
				2.515251367185556e-07,
				1
			],
			"scale":[
				1,
				0.9999999403953552,
				0.9999999403953552
			],
			"translation":[
				7.945080757141113,
				-4.856609393755207e-06,
				1.2395466910675168e-05
			]
		},
		{
			"children":[
				28,
				29,
				32,
				33,
				34,
				35
			],
			"name":"Bip01_Head",
			"rotation":[
				2.911037881858647e-07,
				-1.0515593658055877e-06,
				0.42648693919181824,
				0.9044937491416931
			],
			"scale":[
				1,
				1,
				0.9999999403953552
			],
			"translation":[
				3.627377510070801,
				-4.2916803977277596e-06,
				-1.879764113255078e-06
			]
		},
		{
			"children":[
				36
			],
			"name":"Bip01_Neck1",
			"rotation":[
				-2.6139304054595414e-07,
				-2.8144893349235645e-07,
				0.016921520233154297,
				0.9998568296432495
			],
			"scale":[
				1,
				1.0000001192092896,
				1
			],
			"translation":[
				3.780411720275879,
				-0.002882719039916992,
				-9.758450687513687e-07
			]
		},
		{
			"children":[
				21,
				27,
				37
			],
			"name":"Bip01_Neck",
			"rotation":[
				-3.137047954737682e-08,
				1.1989047834504163e-06,
				-0.4581504166126251,
				0.8888746500015259
			],
			"scale":[
				1.0000001192092896,
				1,
				1
			],
			"translation":[
				8.179272651672363,
				0.43761301040649414,
				-2.2882813937030733e-06
			]
		},
		{
			"children":[
				38
			],
			"name":"Bip01_Spine2",
			"rotation":[
				-7.91994664295359e-11,
				1.0576708575626981e-07,
				-0.014046858064830303,
				0.9999013543128967
			],
			"scale":[
				1,
				1.0000001192092896,
				1
			],
			"translation":[
				7.52986478805542,
				-0.005656108260154724,
				-4.357571015134454e-08
			]
		},
		{
			"children":[
				39
			],
			"name":"Bip01_Spine1",
			"rotation":[
				9.044099913424475e-10,
				-1.7376801508817152e-07,
				0.08611983060836792,
				0.9962847828865051
			],
			"scale":[
				1,
				1.0000001192092896,
				1.0000001192092896
			],
			"translation":[
				4.778803825378418,
				-0.005902647972106934,
				8.228016667999327e-08
			]
		},
		{
			"children":[
				9,
				15,
				40
			],
			"name":"Bip01_Spine",
			"rotation":[
				-1.963830982276704e-06,
				-6.349160344143456e-07,
				-0.053768426179885864,
				0.9985533952713013
			],
			"scale":[
				1,
				0.9999999403953552,
				0.9999999403953552
			],
			"translation":[
				1.3413944244384766,
				-0.0064945220947265625,
				-2.5989561436290387e-07
			]
		},
		{
			"children":[
				3,
				41
			],
			"name":"Bip01_Pelvis",
			"rotation":[
				-0.5000003576278687,
				-0.5000003576278687,
				-0.49999964237213135,
				0.49999964237213135
			],
			"scale":[
				1,
				0.9999999403953552,
				1.0000001192092896
			],
			"translation":[
				8.057804734562524e-06,
				2.281738034071168e-07,
				5.791720923298271e-06
			]
		},
		{
			"children":[
				42
			],
			"name":"Hips",
			"rotation":[
				0,
				0.7071067690849304,
				0,
				0.7071067690849304
			],
			"scale":[
				1,
				1.0000001192092896,
				1
			],
			"translation":[
				-9.800897598266602,
				-1.9073488601861754e-06,
				20.223552703857422
			]
		},
		{
			"children":[
				43
			],
			"name":"RootNode_0",
			"scale":[
				1,
				0.9999998807907104,
				1
			]
		},
		{
			"children":[
				44
			],
			"name":"RL_BoneRoot",
			"rotation":[
				-0.7071067690849304,
				0,
				0,
				0.7071067690849304
			]
		},
		{
			"mesh":0,
			"name":"U3DMesh",
			"skin":0
		},
		{
			"children":[
				46,
				45
			],
			"name":"Armature",
			"scale":[
				0.009999999776482582,
				0.009999999776482582,
				0.009999999776482582
			]
		}
	],
	"materials":[
		{
			"alphaMode":"BLEND",
			"doubleSided":true,
			"extensions":{
				"KHR_materials_specular":{
					"specularColorFactor":[
						0.0,
						0.0,
						0.0
					]
				}
			},
			"name":"material_1",
			"pbrMetallicRoughness":{
				"baseColorTexture":{
					"index":0
				},
				"metallicFactor":0,
				"roughnessFactor":0.8999999761581421
			}
		}
	],
	"meshes":[
		{
			"name":"U3DMesh",
			"primitives":[
				{
					"attributes":{
						"POSITION":0,
						"NORMAL":1,
						"TEXCOORD_0":2,
						"TEXCOORD_1":3,
						"JOINTS_0":4,
						"WEIGHTS_0":5
					},
					"indices":6,
					"material":0
				}
			]
		}
	],
	"textures":[
		{
			"sampler":0,
			"source":0
		}
	],
	"images":[
		{
			"mimeType":"image/png",
			"name":"material_1_Diffuse-material_1_Opacity",
			"uri":"material_1_Diffuse-material_1_Opacity.png"
		}
	],
	"skins":[
		{
			"inverseBindMatrices":7,
			"joints":[
				45,
				44,
				43,
				42,
				3,
				2,
				1,
				0,
				41,
				9,
				8,
				7,
				6,
				5,
				4,
				15,
				14,
				13,
				12,
				11,
				10,
				40,
				39,
				38,
				21,
				20,
				19,
				18,
				17,
				16,
				27,
				26,
				25,
				24,
				23,
				22,
				37,
				36,
				28,
				29,
				32,
				31,
				30,
				33,
				34,
				35
			],
			"name":"Armature"
		}
	],
	"accessors":[
		{
			"bufferView":0,
			"componentType":5126,
			"count":1805,
			"max":[
				0.2395416796207428,
				0.3001268208026886,
				0.05334598571062088
			],
			"min":[
				-0.36604955792427063,
				0.00017726171063259244,
				-0.05334675684571266
			],
			"type":"VEC3"
		},
		{
			"bufferView":1,
			"componentType":5126,
			"count":1805,
			"type":"VEC3"
		},
		{
			"bufferView":2,
			"componentType":5126,
			"count":1805,
			"type":"VEC2"
		},
		{
			"bufferView":3,
			"componentType":5126,
			"count":1805,
			"type":"VEC2"
		},
		{
			"bufferView":4,
			"componentType":5121,
			"count":1805,
			"type":"VEC4"
		},
		{
			"bufferView":5,
			"componentType":5126,
			"count":1805,
			"type":"VEC4"
		},
		{
			"bufferView":6,
			"componentType":5123,
			"count":8412,
			"type":"SCALAR"
		},
		{
			"bufferView":7,
			"componentType":5126,
			"count":46,
			"type":"MAT4"
		}
	],
	"bufferViews":[
		{
			"buffer":0,
			"byteLength":21660,
			"byteOffset":0,
			"target":34962
		},
		{
			"buffer":0,
			"byteLength":21660,
			"byteOffset":21660,
			"target":34962
		},
		{
			"buffer":0,
			"byteLength":14440,
			"byteOffset":43320,
			"target":34962
		},
		{
			"buffer":0,
			"byteLength":14440,
			"byteOffset":57760,
			"target":34962
		},
		{
			"buffer":0,
			"byteLength":7220,
			"byteOffset":72200,
			"target":34962
		},
		{
			"buffer":0,
			"byteLength":28880,
			"byteOffset":79420,
			"target":34962
		},
		{
			"buffer":0,
			"byteLength":16824,
			"byteOffset":108300,
			"target":34963
		},
		{
			"buffer":0,
			"byteLength":2944,
			"byteOffset":125124
		}
	],
	"samplers":[
		{
			"magFilter":9729,
			"minFilter":9987
		}
	],
	"buffers":[
		{
			"byteLength":128068,
			"uri":"Cat.bin"
		}
	]
}
