{
	"asset":{
		"generator":"Khronos glTF Blender I/O v5.0.21",
		"version":"2.0"
	},
	"extensionsUsed":[
		"KHR_materials_specular"
	],
	"scene":0,
	"scenes":[
		{
			"name":"Scene",
			"nodes":[
				34
			]
		}
	],
	"nodes":[
		{
			"name":"LEFT_Leg_ToeSHJnt",
			"rotation":[
				-3.2406411776264576e-08,
				-4.221613494337362e-07,
				5.662442390530487e-07,
				1
			],
			"scale":[
				0.9999998807907104,
				0.9999999403953552,
				0.9999999403953552
			],
			"translation":[
				1.6030232906341553,
				1.1015627933375072e-05,
				-0.1427081823348999
			]
		},
		{
			"children":[
				0
			],
			"name":"LEFT_Leg_BallSHJnt",
			"rotation":[
				5.2070458167463585e-08,
				-0.7071064710617065,
				1.574375829704877e-07,
				0.7071070671081543
			],
			"scale":[
				0.9999998807907104,
				0.9999997615814209,
				0.9999998807907104
			],
			"translation":[
				2.521441698074341,
				-0.336391419172287,
				1.4348225593566895
			]
		},
		{
			"children":[
				1
			],
			"name":"LEFT_Leg_AnkleSHJnt",
			"rotation":[
				-0.16840341687202454,
				0.12223733961582184,
				-0.09628249704837799,
				0.9733591675758362
			],
			"scale":[
				1,
				0.9999999403953552,
				0.9999999403953552
			],
			"translation":[
				7.057735443115234,
				-3.3918768167495728e-06,
				-2.9727816581726074e-06
			]
		},
		{
			"children":[
				2
			],
			"name":"LEFT_Leg_KneeSHJnt",
			"rotation":[
				1.4204717047050508e-07,
				-0.3295843303203583,
				-1.8002506863012968e-07,
				0.9441261291503906
			],
			"translation":[
				6.7805585861206055,
				-1.5720725059509277e-06,
				-4.76837158203125e-07
			]
		},
		{
			"children":[
				3
			],
			"name":"LEFT_Leg_HipSHJnt",
			"rotation":[
				-0.34586554765701294,
				0.6797322034835815,
				-0.5158237814903259,
				0.3902139961719513
			],
			"scale":[
				0.9999999403953552,
				0.9999999403953552,
				1
			],
			"translation":[
				5.400639057159424,
				-3.5903944969177246,
				-2.2728209495544434
			]
		},
		{
			"name":"RIGHT_Leg_ToeSHJnt",
			"rotation":[
				-1.8055135342365247e-07,
				-1.2766081454174127e-06,
				-6.109473815740785e-07,
				1
			],
			"scale":[
				1.0000001192092896,
				1.0000001192092896,
				1
			],
			"translation":[
				-1.6030300855636597,
				9.80067125055939e-06,
				0.1427040845155716
			]
		},
		{
			"children":[
				5
			],
			"name":"RIGHT_Leg_BallSHJnt",
			"rotation":[
				2.2004385868967802e-07,
				-0.7071059346199036,
				1.8843370241938828e-07,
				0.7071076035499573
			],
			"scale":[
				0.9999999403953552,
				0.9999998807907104,
				1
			],
			"translation":[
				-2.5214428901672363,
				0.33638960123062134,
				-1.4348194599151611
			]
		},
		{
			"children":[
				6
			],
			"name":"RIGHT_Leg_AnkleSHJnt",
			"rotation":[
				-0.16840322315692902,
				0.12223685532808304,
				-0.09628259390592575,
				0.973359227180481
			],
			"scale":[
				0.9999999403953552,
				0.9999997019767761,
				1
			],
			"translation":[
				-7.057720184326172,
				3.300607204437256e-06,
				9.462237358093262e-07
			]
		},
		{
			"children":[
				7
			],
			"name":"RIGHT_Leg_KneeSHJnt",
			"rotation":[
				8.631337067299683e-08,
				-0.3295838534832001,
				2.9593154593499094e-09,
				0.944126307964325
			],
			"scale":[
				1,
				1,
				0.9999999403953552
			],
			"translation":[
				-6.780553340911865,
				-1.8253922462463379e-06,
				3.2186508178710938e-06
			]
		},
		{
			"children":[
				8
			],
			"name":"RIGHT_Leg_HipSHJnt",
			"rotation":[
				-0.6797319650650024,
				-0.3458656370639801,
				0.39021414518356323,
				0.515824019908905
			],
			"scale":[
				1,
				0.9999998211860657,
				0.9999999403953552
			],
			"translation":[
				5.400639057159424,
				-3.5903944969177246,
				2.2728185653686523
			]
		},
		{
			"name":"Tail_01_01SHJnt",
			"rotation":[
				0.2490542232990265,
				-0.9684895873069763,
				-1.1373375485845827e-07,
				1.8857186034892948e-07
			],
			"scale":[
				1,
				0.9999998807907104,
				1
			],
			"translation":[
				-14.705255508422852,
				-7.517085075378418,
				3.1790802950126817e-06
			]
		},
		{
			"name":"Head_JawEndSHJnt",
			"rotation":[
				-1.199040866595169e-13,
				3.793249270245269e-09,
				5.960464477539063e-08,
				1
			],
			"scale":[
				1,
				1.0000001192092896,
				1
			],
			"translation":[
				5.713181495666504,
				-7.629374522366561e-06,
				-2.6234783945255913e-07
			]
		},
		{
			"children":[
				11
			],
			"name":"Head_JawSHJnt",
			"rotation":[
				-1.0981013076616364e-07,
				-1.1765062879476318e-07,
				-0.885515570640564,
				0.46460971236228943
			],
			"scale":[
				1,
				0.9999999403953552,
				1
			],
			"translation":[
				-0.69287109375,
				-2.970756769180298,
				-8.253732630691957e-08
			]
		},
		{
			"name":"LEFT_Eye_01SHJnt",
			"rotation":[
				0.5000001788139343,
				0.4999998211860657,
				-0.5000001192092896,
				0.4999999403953552
			],
			"scale":[
				1,
				0.9999999403953552,
				0.9999999403953552
			],
			"translation":[
				-1.2268010377883911,
				-2.342747449874878,
				-1.3790676593780518
			]
		},
		{
			"name":"RIGHT_Eye_01SHJnt",
			"rotation":[
				-0.5000002384185791,
				-0.49999988079071045,
				-0.5000000596046448,
				0.49999988079071045
			],
			"scale":[
				1,
				0.9999998211860657,
				0.9999999403953552
			],
			"translation":[
				-1.2267931699752808,
				-2.3427441120147705,
				1.3790664672851562
			]
		},
		{
			"children":[
				13,
				14
			],
			"name":"Head_TopSHJnt",
			"rotation":[
				-1.1238414170632038e-13,
				2.944259419601636e-15,
				2.5616622606233937e-15,
				1
			],
			"scale":[
				0.9999999403953552,
				0.9999999403953552,
				1
			],
			"translation":[
				1.9999847412109375,
				7.760921107546892e-06,
				1.534149305371102e-07
			]
		},
		{
			"children":[
				12,
				15
			],
			"name":"Neck_TopSHJnt",
			"rotation":[
				7.004820190559258e-08,
				3.976060369836887e-08,
				0.5735763907432556,
				0.8191521167755127
			],
			"scale":[
				1,
				0.9999999403953552,
				1
			],
			"translation":[
				6.035017967224121,
				0.8823785781860352,
				-7.013258596089145e-07
			]
		},
		{
			"children":[
				16
			],
			"name":"Neck_01SHJnt",
			"rotation":[
				1.1022449619702002e-08,
				-1.9538317630463098e-08,
				0.17364837229251862,
				0.9848077297210693
			],
			"translation":[
				1.6295801401138306,
				0.7453057765960693,
				-1.580318382821133e-07
			]
		},
		{
			"name":"LEFT_Wing_01_04SHJnt",
			"rotation":[
				3.3754432138266566e-08,
				-0.11573326587677002,
				3.586408752198622e-07,
				0.9932803511619568
			],
			"scale":[
				0.9999999403953552,
				0.9999999403953552,
				1
			],
			"translation":[
				15.035419464111328,
				1.9073486328125e-06,
				2.5318219661712646
			]
		},
		{
			"children":[
				18
			],
			"name":"LEFT_Wing_01_03SHJnt",
			"rotation":[
				5.7065523861865586e-08,
				-2.4628275241411757e-07,
				-0.3669178783893585,
				0.9302533864974976
			],
			"scale":[
				0.9999999403953552,
				0.9999999403953552,
				1
			],
			"translation":[
				9.232531547546387,
				-9.5367431640625e-07,
				1.3589859008789062e-05
			]
		},
		{
			"children":[
				19
			],
			"name":"LEFT_Wing_01_02SHJnt",
			"rotation":[
				-0.04805006459355354,
				-0.052762292325496674,
				0.23976124823093414,
				0.9682055115699768
			],
			"translation":[
				8.789702415466309,
				-5.066394805908203e-06,
				-6.4373016357421875e-06
			]
		},
		{
			"children":[
				20
			],
			"name":"LEFT_Wing_01_01SHJnt",
			"rotation":[
				0.4900486469268799,
				0.6216691732406616,
				-0.3977067768573761,
				0.46390628814697266
			],
			"scale":[
				1.0000001192092896,
				1.000000238418579,
				1.000000238418579
			],
			"translation":[
				0.8002486824989319,
				2.1319937705993652,
				-4.266269207000732
			]
		},
		{
			"name":"RIGHT_Wing_01_04SHJnt",
			"rotation":[
				1.0313854659216304e-07,
				-0.11573319137096405,
				1.1556205237184258e-07,
				0.9932803511619568
			],
			"scale":[
				1,
				0.9999999403953552,
				1
			],
			"translation":[
				-15.035433769226074,
				4.76837158203125e-06,
				-2.531797409057617
			]
		},
		{
			"children":[
				22
			],
			"name":"RIGHT_Wing_01_03SHJnt",
			"rotation":[
				5.5063210879779945e-08,
				2.0123100341606914e-07,
				-0.36691752076148987,
				0.9302535057067871
			],
			"scale":[
				1,
				1.0000001192092896,
				1
			],
			"translation":[
				-9.232536315917969,
				-3.337860107421875e-06,
				-1.621246337890625e-05
			]
		},
		{
			"children":[
				23
			],
			"name":"RIGHT_Wing_01_02SHJnt",
			"rotation":[
				-0.04805027320981026,
				-0.05276395380496979,
				0.239761084318161,
				0.968205451965332
			],
			"scale":[
				0.9999998807907104,
				0.9999999403953552,
				1
			],
			"translation":[
				-8.789693832397461,
				-1.5497207641601562e-05,
				-1.1205673217773438e-05
			]
		},
		{
			"children":[
				24
			],
			"name":"RIGHT_Wing_01_01SHJnt",
			"rotation":[
				-0.6216698884963989,
				0.4900491237640381,
				0.46390554308891296,
				0.397706001996994
			],
			"scale":[
				0.9999998211860657,
				0.9999998211860657,
				1
			],
			"translation":[
				0.8002479076385498,
				2.1319937705993652,
				4.266269683837891
			]
		},
		{
			"children":[
				17,
				21,
				25
			],
			"name":"Spine_TopSHJnt",
			"rotation":[
				1.7850464487621787e-13,
				1.0606069424476574e-20,
				1.2478378152991354e-07,
				1
			],
			"scale":[
				1,
				1.0000001192092896,
				1
			],
			"translation":[
				6.236985206604004,
				3.342602491378784,
				-6.048480827303138e-07
			]
		},
		{
			"children":[
				26
			],
			"name":"Spine_01SHJnt",
			"rotation":[
				-9.237969005211621e-14,
				5.960470161880949e-08,
				-6.73858124855542e-08,
				1
			],
			"scale":[
				1,
				0.9999998807907104,
				1
			],
			"translation":[
				11.031379699707031,
				3.3529133796691895,
				-2.3848385808378225e-06
			]
		},
		{
			"children":[
				4,
				9,
				10,
				27
			],
			"name":"Hips",
			"rotation":[
				-1.0057009377031651e-14,
				0.707106351852417,
				8.446584425879056e-18,
				0.7071071863174438
			],
			"translation":[
				-5.081432857206339e-32,
				20.769411087036133,
				4.088533401489258
			]
		},
		{
			"children":[
				28
			],
			"name":"Seagull",
			"rotation":[
				0.7071065902709961,
				0,
				0,
				0.7071069478988647
			]
		},
		{
			"children":[
				29
			],
			"name":"RootNode_0"
		},
		{
			"children":[
				30
			],
			"name":"RL_BoneRoot",
			"rotation":[
				-0.7071067690849304,
				0,
				0,
				0.7071067690849304
			]
		},
		{
			"mesh":0,
			"name":"_000_SK_Seagull",
			"skin":0
		},
		{
			"mesh":1,
			"name":"_001_SK_Seagull",
			"skin":0
		},
		{
			"children":[
				32,
				33,
				31
			],
			"name":"Armature",
			"scale":[
				0.009999999776482582,
				0.009999999776482582,
				0.009999999776482582
			]
		}
	],
	"materials":[
		{
			"alphaMode":"BLEND",
			"doubleSided":true,
			"extensions":{
				"KHR_materials_specular":{
					"specularColorFactor":[
						0.9960784912109375,
						0.9960784912109375,
						0.9960784912109375
					]
				}
			},
			"name":"M_SeagullWings",
			"normalTexture":{
				"index":0
			},
			"pbrMetallicRoughness":{
				"baseColorTexture":{
					"index":1
				},
				"metallicFactor":0,
				"roughnessFactor":0.2928932309150696
			}
		},
		{
			"doubleSided":true,
			"name":"M_SeagullBody",
			"normalTexture":{
				"index":2
			},
			"pbrMetallicRoughness":{
				"baseColorTexture":{
					"index":3
				},
				"metallicFactor":0,
				"roughnessFactor":0.2928932309150696
			}
		}
	],
	"meshes":[
		{
			"name":"_000_SK_Seagull",
			"primitives":[
				{
					"attributes":{
						"POSITION":0,
						"NORMAL":1,
						"TEXCOORD_0":2,
						"JOINTS_0":3,
						"WEIGHTS_0":4
					},
					"indices":5,
					"material":0
				}
			]
		},
		{
			"name":"_001_SK_Seagull",
			"primitives":[
				{
					"attributes":{
						"POSITION":7,
						"NORMAL":8,
						"TEXCOORD_0":9,
						"JOINTS_0":10,
						"WEIGHTS_0":11
					},
					"indices":12,
					"material":1
				}
			]
		}
	],
	"textures":[
		{
			"sampler":0,
			"source":0
		},
		{
			"sampler":0,
			"source":1
		},
		{
			"sampler":0,
			"source":2
		},
		{
			"sampler":0,
			"source":3
		}
	],
	"images":[
		{
			"mimeType":"image/png",
			"name":"M_SeagullWings_Normal",
			"uri":"M_SeagullWings_Normal.png"
		},
		{
			"mimeType":"image/png",
			"name":"M_SeagullWings_Diffuse",
			"uri":"M_SeagullWings_Diffuse.png"
		},
		{
			"mimeType":"image/png",
			"name":"M_SeagullBody_Normal",
			"uri":"M_SeagullBody_Normal.png"
		},
		{
			"mimeType":"image/png",
			"name":"M_SeagullBody_Diffuse",
			"uri":"M_SeagullBody_Diffuse.png"
		}
	],
	"skins":[
		{
			"inverseBindMatrices":6,
			"joints":[
				31,
				30,
				29,
				28,
				4,
				3,
				2,
				1,
				0,
				9,
				8,
				7,
				6,
				5,
				10,
				27,
				26,
				17,
				16,
				12,
				11,
				15,
				13,
				14,
				21,
				20,
				19,
				18,
				25,
				24,
				23,
				22
			],
			"name":"Armature"
		}
	],
	"accessors":[
		{
			"bufferView":0,
			"componentType":5126,
			"count":57,
			"max":[
				0.5884485244750977,
				0.3488708436489105,
				0.22148124873638153
			],
			"min":[
				-0.5884484052658081,
				0.12215016782283783,
				-0.18484967947006226
			],
			"type":"VEC3"
		},
		{
			"bufferView":1,
			"componentType":5126,
			"count":57,
			"type":"VEC3"
		},
		{
			"bufferView":2,
			"componentType":5126,
			"count":57,
			"type":"VEC2"
		},
		{
			"bufferView":3,
			"componentType":5121,
			"count":57,
			"type":"VEC4"
		},
		{
			"bufferView":4,
			"componentType":5126,
			"count":57,
			"type":"VEC4"
		},
		{
			"bufferView":5,
			"componentType":5123,
			"count":144,
			"type":"SCALAR"
		},
		{
			"bufferView":6,
			"componentType":5126,
			"count":32,
			"type":"MAT4"
		},
		{
			"bufferView":7,
			"componentType":5126,
			"count":1397,
			"max":[
				0.335316002368927,
				0.34615615010261536,
				0.13242554664611816
			],
			"min":[
				-0.33531564474105835,
				0.005993151571601629,
				-0.2914828956127167
			],
			"type":"VEC3"
		},
		{
			"bufferView":8,
			"componentType":5126,
			"count":1397,
			"type":"VEC3"
		},
		{
			"bufferView":9,
			"componentType":5126,
			"count":1397,
			"type":"VEC2"
		},
		{
			"bufferView":10,
			"componentType":5121,
			"count":1397,
			"type":"VEC4"
		},
		{
			"bufferView":11,
			"componentType":5126,
			"count":1397,
			"type":"VEC4"
		},
		{
			"bufferView":12,
			"componentType":5123,
			"count":6582,
			"type":"SCALAR"
		}
	],
	"bufferViews":[
		{
			"buffer":0,
			"byteLength":684,
			"byteOffset":0,
			"target":34962
		},
		{
			"buffer":0,
			"byteLength":684,
			"byteOffset":684,
			"target":34962
		},
		{
			"buffer":0,
			"byteLength":456,
			"byteOffset":1368,
			"target":34962
		},
		{
			"buffer":0,
			"byteLength":228,
			"byteOffset":1824,
			"target":34962
		},
		{
			"buffer":0,
			"byteLength":912,
			"byteOffset":2052,
			"target":34962
		},
		{
			"buffer":0,
			"byteLength":288,
			"byteOffset":2964,
			"target":34963
		},
		{
			"buffer":0,
			"byteLength":2048,
			"byteOffset":3252
		},
		{
			"buffer":0,
			"byteLength":16764,
			"byteOffset":5300,
			"target":34962
		},
		{
			"buffer":0,
			"byteLength":16764,
			"byteOffset":22064,
			"target":34962
		},
		{
			"buffer":0,
			"byteLength":11176,
			"byteOffset":38828,
			"target":34962
		},
		{
			"buffer":0,
			"byteLength":5588,
			"byteOffset":50004,
			"target":34962
		},
		{
			"buffer":0,
			"byteLength":22352,
			"byteOffset":55592,
			"target":34962
		},
		{
			"buffer":0,
			"byteLength":13164,
			"byteOffset":77944,
			"target":34963
		}
	],
	"samplers":[
		{
			"magFilter":9729,
			"minFilter":9987
		}
	],
	"buffers":[
		{
			"byteLength":91108,
			"uri":"Seagull.bin"
		}
	]
}
